HIERARCHY
ROOT Hips
{
	OFFSET -3.958830 18.904000 13.208200
	CHANNELS 6 Xposition Yposition Zposition Zrotation Yrotation Xrotation 
	JOINT LHipJoint
	{
		OFFSET 0.000000 0.000000 0.000000
		CHANNELS 3 Zrotation Yrotation Xrotation
		JOINT LeftUpLeg
		{
			OFFSET 1.800000 -1.400000 0.085000
			CHANNELS 3 Zrotation Yrotation Xrotation
			JOINT LeftLeg
			{
				OFFSET 2.215000 -6.000000 0.000000
				CHANNELS 3 Zrotation Yrotation Xrotation
				JOINT LeftFoot
				{
					OFFSET 2.500000 -6.900000 0.000000
					CHANNELS 3 Zrotation Yrotation Xrotation
					JOINT LeftToeBase
					{
						OFFSET 0.200000 -0.500000 1.950000
						CHANNELS 3 Zrotation Yrotation Xrotation
						End Site
						{
							OFFSET 0.000000 0.000000 0.000000
						}
					}
				}
			}
		}
	}
	JOINT RHipJoint
	{
		OFFSET 0.000000 0.000000 0.000000
		CHANNELS 3 Zrotation Yrotation Xrotation
		JOINT RightUpLeg
		{
			OFFSET -1.800000 -1.400000 0.085000
			CHANNELS 3 Zrotation Yrotation Xrotation
			JOINT RightLeg
			{
				OFFSET -2.215000 -6.000000 0.000000
				CHANNELS 3 Zrotation Yrotation Xrotation
				JOINT RightFoot
				{
					OFFSET -2.500000 -6.900000 0.000000
					CHANNELS 3 Zrotation Yrotation Xrotation
					JOINT RightToeBase
					{
						OFFSET -0.200000 -0.500000 1.950000
						CHANNELS 3 Zrotation Yrotation Xrotation
						End Site
						{
							OFFSET 0.000000 0.000000 0.000000
						}
					}
				}
			}
		}
	}
	JOINT LowerBack
	{
		OFFSET 0.000000 0.000000 0.000000
		CHANNELS 3 Zrotation Yrotation Xrotation
		JOINT Spine
		{
			OFFSET -0.087000 1.940000 -0.288900
			CHANNELS 3 Zrotation Yrotation Xrotation
			JOINT Spine1
			{
				OFFSET 0.000000 1.950000 0.060000
				CHANNELS 3 Zrotation Yrotation Xrotation
				JOINT Neck
				{
					OFFSET 0.000000 0.000000 0.000000
					CHANNELS 3 Zrotation Yrotation Xrotation
					JOINT Neck1
					{
						OFFSET 0.000000 1.600000 0.340000
						CHANNELS 3 Zrotation Yrotation Xrotation
						JOINT Head
						{
							OFFSET 0.000000 1.667000 -0.240000
							CHANNELS 3 Zrotation Yrotation Xrotation
							End Site
							{
								OFFSET 0.000000 0.000000 0.000000
							}
						}
					}
				}
				JOINT LeftShoulder
				{
					OFFSET 0.000000 0.000000 0.000000
					CHANNELS 3 Zrotation Yrotation Xrotation
					JOINT LeftArm
					{
						OFFSET 2.700000 1.550000 -0.730000
						CHANNELS 3 Zrotation Yrotation Xrotation
						JOINT LeftForeArm
						{
							OFFSET 5.450000 0.000000 0.000000
							CHANNELS 3 Zrotation Yrotation Xrotation
							JOINT LeftHand
							{
								OFFSET 3.450000 0.000000 0.000000
								CHANNELS 3 Zrotation Yrotation Xrotation
								JOINT LeftHandIndex1
								{
									OFFSET 0.750000 0.000000 0.000000
									CHANNELS 3 Zrotation Yrotation Xrotation
									End Site
									{
										OFFSET 0.000000 0.000000 0.000000
									}
								}
							}
						}
					}
				}
				JOINT RightShoulder
				{
					OFFSET 0.000000 0.000000 0.000000
					CHANNELS 3 Zrotation Yrotation Xrotation
					JOINT RightArm
					{
						OFFSET -2.700000 1.550000 -0.730000
						CHANNELS 3 Zrotation Yrotation Xrotation
						JOINT RightForeArm
						{
							OFFSET -5.450000 0.000000 0.000000
							CHANNELS 3 Zrotation Yrotation Xrotation
							JOINT RightHand
							{
								OFFSET -3.450000 0.000000 0.000000
								CHANNELS 3 Zrotation Yrotation Xrotation
								JOINT RightHandIndex1
								{
									OFFSET -0.750000 0.000000 0.000000
									CHANNELS 3 Zrotation Yrotation Xrotation
									End Site
									{
										OFFSET 0.000000 0.000000 0.000000
									}
								}
							}
						}
					}
				}
			}
		}
	}
}
MOTION
Frames: 8
Frame Time: 0.016667
0.861740 17.726800 -2.653180 -14.480185 20.341151 -8.024108 -14.751194 11.058643 1.661436 9.637410 -0.261208 -3.768262 -4.061834 4.084266 3.625342 0.054966 3.490160 3.503128 0.135780 -0.008470 0.065310 18.992059 -9.438033 6.040403 -31.960057 6.361883 -32.868022 72.522392 -24.423614 19.460248 -1.805387 -9.816543 0.946456 -0.061220 0.083710 0.181210 -5.499306 1.715787 -9.142729 34.177687 -3.207639 11.245747 -14.584075 1.758884 8.333036 4.982315 5.294054 -16.725349 10.443534 -24.185777 24.531303 -3.895540 -21.546500 -2.917070 -4.493228 -26.096320 14.537980 2.745283 2.624294 -0.200880 8.458682 8.718370 0.006545 -4.209107 2.908220 0.003240 0.037030 -0.070920 0.088650 -8.286146 27.044869 4.068959 -3.565054 18.564207 -12.036617 -42.991689 77.909785 -29.945954 1.989516 -1.393079 0.091510 -0.073100 -0.049700 0.097430 
0.879910 17.719390 -2.662960 -15.297004 20.032910 -8.174252 -14.739904 10.958258 1.611412 10.397647 -0.305969 -3.764233 -4.060404 4.062339 3.273156 0.039008 3.530974 3.498418 0.150190 0.015330 0.067320 19.031897 -9.359460 6.132591 -33.130911 5.994365 -33.220384 76.129461 -24.897359 18.370116 -1.844914 -9.879957 0.937469 -0.026330 0.101190 0.162100 -5.542740 1.786659 -9.156405 35.378687 -3.457791 10.708099 -14.565189 1.556008 8.989386 5.163216 4.998379 -16.451680 10.120955 -24.258014 23.784271 -3.581660 -21.748430 -3.355400 -3.958880 -25.650646 14.365456 2.467908 2.325236 -0.143057 7.792723 9.184497 -0.067358 -4.228698 2.888672 -0.010530 0.044100 -0.089370 0.096840 -9.007161 26.741993 3.891543 -3.680089 18.629383 -12.329072 -45.341151 76.251374 -30.615594 1.978048 -1.354501 0.073380 -0.045740 -0.055090 0.100390 
0.902510 17.692450 -2.673320 -16.576759 19.722890 -8.014963 -14.730863 10.794782 1.518599 11.614558 -0.450514 -4.269694 -4.025876 4.016564 2.946028 -0.030805 3.638434 3.480222 0.146900 0.004110 0.045450 19.095212 -9.214152 6.301406 -35.470674 5.082025 -34.292195 82.834939 -26.093362 16.545863 -1.900058 -10.045522 0.901663 0.017240 0.181870 0.177210 -5.595662 1.871655 -9.162443 36.879580 -3.759805 9.350246 -14.294731 1.107648 9.792582 5.466643 4.443679 -15.903324 9.608614 -24.386103 21.853493 -4.307620 -21.694860 -2.902180 -3.889132 -25.044941 14.095092 3.146129 2.344892 0.032280 6.717190 10.109916 -0.292702 -4.337345 2.865289 -0.049120 0.110330 -0.153330 0.104220 -9.444253 26.357973 3.451781 -5.201511 19.116254 -12.228133 -44.174779 72.799156 -27.872375 1.988102 -1.509831 0.035500 -0.009100 -0.018090 0.101420 
0.929540 17.656160 -2.682330 -17.702103 18.905563 -7.946895 -14.736235 10.724328 1.474014 12.696358 -0.506296 -4.477189 -4.015411 4.023348 2.724955 -0.035159 3.696844 3.466184 0.161850 0.036120 0.035620 19.126339 -9.077250 6.431250 -37.699301 4.109887 -35.332006 89.165042 -27.942426 15.370309 -1.979493 -10.215399 0.883433 0.049310 0.204660 0.175440 -5.572676 1.777678 -9.187870 38.270309 -4.051477 8.810818 -13.888986 0.851900 10.033048 5.479615 3.841439 -15.708769 8.915877 -24.845847 20.642636 -4.807550 -21.901890 -2.910830 -3.657798 -24.394980 13.845249 3.151606 2.459547 0.131330 6.069803 10.165848 -0.396175 -4.361314 2.860812 -0.079200 0.134220 -0.172930 0.119770 -9.592103 26.177055 3.437207 -6.351271 18.200031 -12.707945 -48.191440 70.753157 -29.148334 1.978749 -1.470660 0.033490 0.004730 -0.023660 0.113160 
0.945700 17.607960 -2.696770 -18.530211 17.693033 -7.810536 -14.736997 10.705202 1.413573 13.432398 -0.531808 -4.717872 -3.881127 4.092278 3.134461 -0.050065 3.741702 3.463470 0.142630 0.024090 0.006550 19.152735 -9.000279 6.539187 -39.541455 3.152478 -36.773451 94.827054 -30.281328 14.706126 -2.040619 -10.408681 0.864101 0.061540 0.241520 0.157160 -5.552017 1.701687 -9.189636 39.277766 -4.291137 8.703980 -13.620840 0.748981 10.107743 5.283551 3.457649 -15.556274 8.587952 -25.542064 19.584393 -5.038930 -22.510820 -2.310820 -3.749807 -23.615147 13.459285 3.608737 2.739618 0.101727 6.510172 10.432520 -0.369572 -4.397038 2.848093 -0.106530 0.159930 -0.209720 0.126870 -9.040800 25.747826 3.861270 -6.850731 16.594655 -13.331256 -57.794120 68.689573 -34.032299 1.955279 -1.250460 0.010300 0.028820 -0.013160 0.122300 
0.959400 17.566210 -2.709630 -19.214148 16.105067 -7.928388 -14.745266 10.713148 1.404181 14.204141 -0.496052 -4.307071 -3.994475 4.208909 3.282994 -0.049787 3.848313 3.430165 0.173400 0.070940 0.023940 19.159085 -8.936582 6.599039 -40.907089 2.466466 -38.143433 99.316370 -32.770693 14.524563 -2.121318 -10.609902 0.829453 0.103650 0.248740 0.156130 -5.495737 1.590760 -9.194199 39.981708 -4.516743 8.972036 -12.852226 0.431974 10.524649 5.307249 3.117646 -15.598286 8.346461 -25.683054 18.738105 -5.653770 -22.213490 -2.540680 -4.172376 -22.907099 13.179510 3.858844 3.600867 0.209220 6.641806 10.454099 -0.381239 -4.412814 2.846828 -0.123400 0.176420 -0.213000 0.138990 -8.581743 25.492930 4.366724 -7.332783 15.169558 -13.800634 -64.328806 65.654402 -36.895354 1.999780 -1.218866 0.007260 0.044870 -0.028940 0.123500 
0.962860 17.540890 -2.716290 -19.433411 14.710113 -7.785026 -14.750673 10.699222 1.406397 14.312317 -0.451928 -3.785342 -3.857272 4.184739 2.975227 -0.054086 3.917050 3.425790 0.161130 0.063510 0.005840 19.168933 -8.892637 6.656010 -42.004631 1.949681 -39.067739 102.614056 -34.261736 14.129259 -2.152904 -10.738540 0.815925 0.117800 0.286510 0.154990 -5.462372 1.550917 -9.202393 40.033354 -4.551004 9.151159 -12.122914 0.238530 10.960196 5.143156 2.928475 -15.845479 8.372565 -25.839293 17.923589 -6.274990 -22.046520 -1.820640 -4.955956 -22.517518 13.041899 4.163380 4.922274 0.322328 7.503214 10.141133 -0.298759 -4.444253 2.852558 -0.147950 0.212050 -0.242650 0.146000 -7.460044 25.435151 5.130569 -7.267057 13.746992 -14.213877 -67.910007 61.833171 -37.698295 2.108980 -1.338720 -0.011570 0.062090 -0.017730 0.127170 
0.976370 17.535230 -2.731800 -19.659953 13.271164 -8.074954 -14.763250 10.791900 1.433860 14.063456 -0.357287 -2.972981 -3.130045 4.059649 2.608940 -0.017330 3.907672 3.438297 0.166890 0.065360 0.018430 19.144447 -8.877270 6.648810 -42.054269 2.072654 -39.196704 103.571024 -35.331440 14.512796 -2.190607 -10.820947 0.800010 0.106120 0.266880 0.158310 -5.385395 1.351786 -9.201972 40.944721 -5.049046 9.937074 -12.491367 0.229264 11.141432 5.092848 2.498156 -16.169257 7.676254 -25.933581 18.048650 -6.436950 -22.157280 -1.826830 -5.931739 -22.500663 13.126887 4.095972 6.458460 0.405835 9.225043 8.919969 -0.091433 -4.378911 2.913835 -0.143830 0.198320 -0.228420 0.147690 -6.414542 26.056965 5.733815 -6.795156 12.717614 -14.958361 -70.044813 59.084515 -38.097144 2.235152 -1.443272 0.001730 0.045620 -0.033330 0.128240 
